<svg xmlns="http://www.w3.org/2000/svg" xmlns:xlink="http://www.w3.org/1999/xlink" width="20" height="20" viewBox="0 0 20 20">
  <defs>
    <clipPath id="clip-path">
      <rect id="Rectangle_19388" data-name="Rectangle 19388" width="20" height="20" fill="#1877f2" stroke="#707070" stroke-width="1"/>
    </clipPath>
  </defs>
  <g id="Mask_Group_15725" data-name="Mask Group 15725" clip-path="url(#clip-path)">
    <path id="facebook_4_" data-name="facebook (4)" d="M7.031,20h-3.2a.971.971,0,0,1-.97-.97V11.806H.99a.971.971,0,0,1-.97-.97V7.74a.971.971,0,0,1,.97-.97H2.858V5.22a5.278,5.278,0,0,1,1.4-3.781A5.027,5.027,0,0,1,7.96,0L10.4,0a.972.972,0,0,1,.968.97V3.848a.971.971,0,0,1-.97.97H8.757c-.5,0-.629.1-.657.131-.045.051-.1.2-.1.595V6.77h2.276a.986.986,0,0,1,.48.122.974.974,0,0,1,.5.849v3.1a.971.971,0,0,1-.97.97H8V19.03a.971.971,0,0,1-.97.97Zm-3-1.172h2.8V11.281a.649.649,0,0,1,.648-.648h2.607V7.942H7.476a.648.648,0,0,1-.648-.648V5.545a2,2,0,0,1,.392-1.371,1.987,1.987,0,0,1,1.535-.528H10.2V1.176l-2.24,0A3.7,3.7,0,0,0,4.031,5.22V7.295a.648.648,0,0,1-.648.648H1.192v2.691H3.383a.648.648,0,0,1,.648.648ZM10.4,1.176h0Zm0,0" transform="translate(4.305)" fill="#1877f2"/>
  </g>
</svg>
