<svg xmlns="http://www.w3.org/2000/svg" xmlns:xlink="http://www.w3.org/1999/xlink" width="20" height="20" viewBox="0 0 20 20">
  <defs>
    <clipPath id="clip-path">
      <rect id="Rectangle_19388" data-name="Rectangle 19388" width="20" height="20" fill="#25d366" stroke="#707070" stroke-width="1"/>
    </clipPath>
  </defs>
  <g id="Mask_Group_15724" data-name="Mask Group 15724" clip-path="url(#clip-path)">
    <path id="whatsapp_10_" data-name="whatsapp (10)" d="M17.012,2.906a9.913,9.913,0,0,0-15.6,11.958L.008,20l5.254-1.378A9.9,9.9,0,0,0,10,19.828h0a9.915,9.915,0,0,0,7.01-16.922ZM10,18.154h0a8.227,8.227,0,0,1-4.193-1.148l-.3-.179-3.118.818.832-3.04-.2-.312A8.237,8.237,0,1,1,10,18.154Zm4.518-6.169c-.248-.124-1.465-.723-1.692-.806s-.392-.124-.557.124-.64.806-.784.971-.289.186-.536.062a6.764,6.764,0,0,1-1.991-1.229A7.47,7.47,0,0,1,7.581,9.392c-.144-.248,0-.369.109-.505a7,7,0,0,0,.619-.847.455.455,0,0,0-.021-.434c-.062-.124-.557-1.343-.763-1.839s-.405-.417-.557-.425-.309-.009-.475-.009a.91.91,0,0,0-.66.31,2.777,2.777,0,0,0-.867,2.066,4.817,4.817,0,0,0,1.011,2.562,11.038,11.038,0,0,0,4.23,3.739,14.174,14.174,0,0,0,1.412.522,3.4,3.4,0,0,0,1.56.1,2.551,2.551,0,0,0,1.672-1.177,2.069,2.069,0,0,0,.144-1.178c-.062-.1-.227-.165-.474-.289Zm0,0" transform="translate(0.04)" fill="#25d366" fill-rule="evenodd"/>
  </g>
</svg>
